<svg width="62" height="52" viewBox="0 0 62 52" fill="none" xmlns="http://www.w3.org/2000/svg">
<path d="M0 36.0751V9.3194L10.0855 0H19.8349L29.9204 9.3194V18.0376L19.8349 27.0563V9.3194H10.0855V27.0563L0 36.0751Z" fill="black"/>
<path d="M62 36.0751V9.3194L51.8105 0H41.9606L31.7711 9.3194V18.0376L41.9606 27.0563V9.3194H51.8105V27.0563L62 36.0751Z" fill="black"/>
<path d="M50.8814 28.3051L60.766 37.3015H41.9852V46.8976L37.0428 41.7997L31.771 37.3015L41.3262 28.3051H50.8814Z" fill="black"/>
<path d="M11.4198 28.3051L1.85064 37.3015H20.0321V46.8976L24.8167 41.7997L29.9203 37.3015L20.6701 28.3051H11.4198Z" fill="black"/>
<rect width="9.5592" height="9.51889" transform="matrix(0.756591 0.653889 -0.729912 0.683541 30.8373 21.0526)" fill="black"/>
<rect width="9.5592" height="9.51889" transform="matrix(0.756591 0.653889 -0.729912 0.683541 30.8373 38.4961)" fill="black"/>
</svg>
